<svg id="Flat" enable-background="new 0 0 512 512" height="512" viewBox="0 0 512 512" width="512" xmlns="http://www.w3.org/2000/svg"><path d="m104 345.9v-307.8c0-7.8 6.3-14.1 14.1-14.1h211.8c7.8 0 14.1 6.3 14.1 14.1v321.9h-225.9c-7.8 0-14.1-6.3-14.1-14.1z" fill="#3397e8"/><path d="m248 56h32v48h-32z" fill="#f7b030"/><g fill="#2978b8"><path d="m136 80c-4.4 0-8-3.6-8-8v-16c0-4.4 3.6-8 8-8s8 3.6 8 8v16c0 4.4-3.6 8-8 8z"/><path d="m136 192c-4.4 0-8-3.6-8-8v-80c0-4.4 3.6-8 8-8s8 3.6 8 8v80c0 4.4-3.6 8-8 8z"/><path d="m216 96c-4.4 0-8-3.6-8-8v-32c0-4.4 3.6-8 8-8s8 3.6 8 8v32c0 4.4-3.6 8-8 8z"/><path d="m216 160c-4.4 0-8-3.6-8-8v-32c0-4.4 3.6-8 8-8s8 3.6 8 8v32c0 4.4-3.6 8-8 8z"/><path d="m216 224c-4.4 0-8-3.6-8-8v-32c0-4.4 3.6-8 8-8s8 3.6 8 8v32c0 4.4-3.6 8-8 8z"/><path d="m216 288c-4.4 0-8-3.6-8-8v-32c0-4.4 3.6-8 8-8s8 3.6 8 8v32c0 4.4-3.6 8-8 8z"/><path d="m312 112c-4.4 0-8-3.6-8-8v-48c0-4.4 3.6-8 8-8s8 3.6 8 8v48c0 4.4-3.6 8-8 8z"/><path d="m312 336c-4.4 0-8-3.6-8-8v-48c0-4.4 3.6-8 8-8s8 3.6 8 8v48c0 4.4-3.6 8-8 8z"/></g><path d="m408 296v192h-56c-44.2 0-80-35.8-80-80h.2l-51.9-76.8c-9.9-14.6-6-34.5 8.6-44.4 14.6-9.9 34.5-6 44.4 8.6l46.7 64.6h24v-192l60.2 112.9c2.5 4.7 3.8 9.8 3.8 15.1z" fill="#f7cca9"/><path d="m144 336c-8.8 0-16-7.2-16-16v-32c0-8.8 7.2-16 16-16 8.8 0 16 7.2 16 16v32c0 8.8-7.2 16-16 16z" fill="#dadcde"/></svg>